<svg width="220" height="87" viewBox="0 0 220 87" fill="none" xmlns="http://www.w3.org/2000/svg">
	<path d="M0 46.8156V38.4799H39.2199V46.8156H24.5999V86.2995H14.62V46.8156H0Z" fill="#A279D6" />
	<path
		d="M45.4923 86.2995V50.4348H55.4255V86.2995H45.4923ZM50.4822 45.8116C49.0055 45.8116 47.7386 45.3213 46.6815 44.3406C45.64 43.3443 45.1192 42.1535 45.1192 40.7681C45.1192 39.3983 45.64 38.223 46.6815 37.2424C47.7386 36.2461 49.0055 35.748 50.4822 35.748C51.959 35.748 53.2182 36.2461 54.2597 37.2424C55.3167 38.223 55.8453 39.3983 55.8453 40.7681C55.8453 42.1535 55.3167 43.3443 54.2597 44.3406C53.2182 45.3213 51.959 45.8116 50.4822 45.8116Z"
		fill="#A279D6" />
	<path
		d="M63.3826 86.2995V50.4348H72.8495V56.7625H73.2692C74.0154 54.661 75.259 53.0032 77 51.789C78.741 50.5749 80.8241 49.9678 83.2491 49.9678C85.7052 49.9678 87.796 50.5827 89.5215 51.8124C91.247 53.0266 92.3973 54.6766 92.9724 56.7625H93.3455C94.0761 54.7077 95.3975 53.0655 97.3095 51.8357C99.2371 50.5904 101.514 49.9678 104.141 49.9678C107.484 49.9678 110.196 51.0341 112.279 53.1667C114.378 55.2837 115.427 58.288 115.427 62.1795V86.2995H105.517V64.1409C105.517 62.1484 104.989 60.6541 103.932 59.6578C102.875 58.6616 101.553 58.1634 99.9677 58.1634C98.1645 58.1634 96.7576 58.7394 95.7472 59.8913C94.7368 61.0276 94.2316 62.5298 94.2316 64.3977V86.2995H84.6015V63.9308C84.6015 62.1718 84.0963 60.7708 83.0859 59.7279C82.091 58.6849 80.7774 58.1634 79.1452 58.1634C78.0415 58.1634 77.0466 58.4436 76.1606 59.004C75.2901 59.5488 74.5983 60.3194 74.0853 61.3156C73.5723 62.2963 73.3158 63.4482 73.3158 64.7713V86.2995H63.3826Z"
		fill="#A279D6" />
	<path
		d="M139.596 87C135.911 87 132.74 86.2528 130.082 84.7585C127.439 83.2485 125.403 81.1159 123.973 78.3607C122.543 75.5899 121.828 72.3132 121.828 68.5306C121.828 64.8414 122.543 61.6036 123.973 58.8172C125.403 56.0309 127.416 53.8594 130.012 52.3027C132.624 50.7461 135.686 49.9678 139.199 49.9678C141.562 49.9678 143.762 50.3492 145.798 51.1119C147.85 51.8591 149.638 52.9877 151.161 54.4976C152.7 56.0075 153.897 57.9066 154.752 60.1948C155.607 62.4675 156.034 65.1294 156.034 68.1804V70.9122H125.792V64.748H146.684C146.684 63.3159 146.373 62.0472 145.751 60.942C145.13 59.8368 144.267 58.9729 143.163 58.3502C142.075 57.712 140.808 57.3929 139.362 57.3929C137.855 57.3929 136.518 57.7432 135.352 58.4436C134.202 59.1286 133.3 60.0547 132.647 61.2222C131.994 62.3741 131.66 63.6583 131.644 65.0749V70.9356C131.644 72.7101 131.971 74.2434 132.624 75.5354C133.292 76.8274 134.233 77.8237 135.445 78.5242C136.658 79.2246 138.096 79.5749 139.759 79.5749C140.863 79.5749 141.873 79.4192 142.79 79.1079C143.707 78.7966 144.492 78.3296 145.145 77.7069C145.798 77.0843 146.296 76.3215 146.638 75.4187L155.825 76.0258C155.358 78.2362 154.402 80.1664 152.957 81.8164C151.526 83.4509 149.677 84.7273 147.407 85.6457C145.153 86.5486 142.549 87 139.596 87Z"
		fill="#A279D6" />
	<path
		d="M162.517 86.2995V50.4348H172.147V56.6924H172.52C173.173 54.4665 174.269 52.7853 175.808 51.649C177.347 50.497 179.119 49.9211 181.124 49.9211C181.621 49.9211 182.158 49.9522 182.733 50.0145C183.308 50.0768 183.813 50.1624 184.249 50.2713V59.0974C183.782 58.9573 183.137 58.8328 182.313 58.7238C181.489 58.6149 180.735 58.5604 180.051 58.5604C178.59 58.5604 177.284 58.8795 176.134 59.5177C174.999 60.1404 174.098 61.0121 173.429 62.1329C172.776 63.2536 172.45 64.5456 172.45 66.0089V86.2995H162.517Z"
		fill="#A279D6" />
	<path
		d="M219.184 60.6618L210.09 61.2222C209.935 60.4439 209.6 59.7434 209.087 59.1208C208.574 58.4826 207.898 57.9767 207.059 57.6031C206.235 57.2139 205.248 57.0193 204.098 57.0193C202.559 57.0193 201.261 57.3462 200.204 58C199.146 58.6382 198.618 59.4944 198.618 60.5684C198.618 61.4246 198.96 62.1484 199.644 62.7399C200.328 63.3315 201.501 63.8062 203.165 64.1642L209.647 65.4718C213.129 66.1879 215.725 67.3398 217.435 68.9275C219.145 70.5153 220 72.6012 220 75.1852C220 77.5357 219.308 79.5982 217.925 81.3728C216.557 83.1473 214.676 84.5327 212.282 85.529C209.904 86.5097 207.16 87 204.051 87C199.31 87 195.532 86.0115 192.719 84.0346C189.92 82.0421 188.281 79.3336 187.799 75.909L197.569 75.3953C197.864 76.843 198.579 77.9482 199.714 78.711C200.849 79.4581 202.302 79.8317 204.074 79.8317C205.815 79.8317 207.214 79.497 208.271 78.8277C209.344 78.1428 209.888 77.2633 209.904 76.1892C209.888 75.2864 209.507 74.547 208.761 73.971C208.015 73.3795 206.864 72.9281 205.31 72.6167L199.108 71.3792C195.61 70.6787 193.006 69.4646 191.296 67.7367C189.602 66.0089 188.755 63.8062 188.755 61.1288C188.755 58.825 189.376 56.8403 190.62 55.1747C191.879 53.5091 193.644 52.2249 195.913 51.3221C198.198 50.4192 200.872 49.9678 203.934 49.9678C208.458 49.9678 212.018 50.9251 214.614 52.8398C217.225 54.7544 218.749 57.3618 219.184 60.6618Z"
		fill="#A279D6" />
	<path
		d="M71.7815 10.8424C72.9955 9.39353 75.1527 9.20455 76.5995 10.4203C78.0464 11.636 78.2351 13.7961 77.0211 15.245L73.5038 19.4424C72.2898 20.8912 70.1326 21.0802 68.6858 19.8645C67.2389 18.6487 67.0502 16.4887 68.2643 15.0398L71.7815 10.8424Z"
		fill="#A279D6" />
	<path
		d="M41.4429 3.42458C41.4429 1.53324 42.974 0 44.8627 0H58.5423C60.4311 0 61.9622 1.53324 61.9622 3.42458C61.9622 5.31593 60.4311 6.84917 58.5423 6.84917H44.8627C42.974 6.84917 41.4429 5.31593 41.4429 3.42458Z"
		fill="#A279D6" />
	<path
		d="M32.8233 17.6105C34.0374 19.0593 36.1945 19.2483 37.6413 18.0326C39.0882 16.8169 39.2769 14.6568 38.0629 13.2079L37.4632 12.4923C37.1738 12.6842 36.8882 12.8822 36.6066 13.0861C35.0222 14.2334 33.5865 15.5534 32.3253 17.0161L32.8233 17.6105Z"
		fill="#A279D6" />
	<path fill-rule="evenodd" clip-rule="evenodd"
		d="M29.7276 8.5884C28.2807 9.80414 28.092 11.9642 29.3061 13.4131L32.3253 17.0161C31.0645 18.4783 29.9782 20.0832 29.0918 21.801C27.3188 25.2373 26.3953 29.03 26.3953 32.876H33.2878C33.4623 30.6106 34.0686 28.3947 35.0789 26.3498C36.3127 23.8521 38.1147 21.6793 40.3399 20.006C42.5651 18.3327 45.1514 17.2057 47.8908 16.7156C50.6301 16.2255 53.4461 16.386 56.1123 17.1841C58.7784 17.9823 61.2203 19.3959 63.2416 21.3111C65.2628 23.2264 66.807 25.5899 67.7499 28.2117C68.6928 30.8334 69.0082 33.6401 68.6706 36.4061C68.4066 38.5693 67.749 40.6604 66.7355 42.5775L72.8012 46.492C74.981 43.2856 76.3608 39.6267 76.8302 35.808C77.2996 31.9893 76.8456 28.1165 75.5045 24.4992C74.1634 20.8819 71.9724 17.6205 69.1067 14.9755C66.2409 12.3305 62.7798 10.3754 59 9.26636C55.2202 8.15733 51.2266 7.92516 47.3383 8.58841C43.7956 9.19271 40.4299 10.525 37.4632 12.4923L34.5457 9.01051C33.3316 7.56165 31.1745 7.37267 29.7276 8.5884ZM37.4632 12.4923L38.0629 13.2079C39.2769 14.6568 39.0882 16.8169 37.6413 18.0326C36.1945 19.2483 34.0374 19.0593 32.8233 17.6105L32.3253 17.0161C33.5865 15.5534 35.0222 14.2334 36.6066 13.0861C36.8882 12.8822 37.1738 12.6842 37.4632 12.4923Z"
		fill="#A279D6" />
</svg>